<svg width="1024" height="500" viewBox="0 0 1024 500" xmlns="http://www.w3.org/2000/svg">
<style>
text{font-family:'Segoe UI',Arial,sans-serif}
</style>
<rect width="1024" height="500" fill="#1E5FD8"/>
<rect x="724" y="0" width="300" height="500" fill="#1A54C2"/>

<g transform="translate(64,86)">
<path d="M46 0 L92 16 L92 60 C92 92 70 113 46 124 C22 113 0 92 0 60 L0 16 Z" fill="#ffffff"/>
<path d="M27 58 L41 74 L70 38" fill="none" stroke="#1E5FD8" stroke-width="12" stroke-linecap="round" stroke-linejoin="round"/>
</g>

<text x="172" y="118" fill="#ffffff" font-size="62" font-weight="700">Missão Cumprida</text>
<text x="174" y="170" fill="#DCE8FB" font-size="32" font-weight="600">Todo serviço vira missão cumprida</text>
<text x="174" y="212" fill="#BFD4F7" font-size="24">Profissionais verificados · pagamento protegido · PIX</text>

<g font-size="22" font-weight="600">
<rect x="174" y="262" width="180" height="52" rx="26" fill="#ffffff"/>
<text x="264" y="295" fill="#15489E" text-anchor="middle">Limpeza</text>
<rect x="368" y="262" width="170" height="52" rx="26" fill="#ffffff"/>
<text x="453" y="295" fill="#15489E" text-anchor="middle">Elétrica</text>
<rect x="552" y="262" width="148" height="52" rx="26" fill="#ffffff"/>
<text x="626" y="295" fill="#15489E" text-anchor="middle">Pintura</text>
<rect x="174" y="330" width="222" height="52" rx="26" fill="#ffffff"/>
<text x="285" y="363" fill="#15489E" text-anchor="middle">Encanamento</text>
<rect x="410" y="330" width="150" height="52" rx="26" fill="#ffffff"/>
<text x="485" y="363" fill="#15489E" text-anchor="middle">Fretes</text>
<rect x="574" y="330" width="126" height="52" rx="26" fill="#ffffff"/>
<text x="637" y="363" fill="#15489E" text-anchor="middle">Aulas</text>
</g>

<g transform="translate(812,140)" opacity="0.9">
<path d="M80 0 L160 28 L160 104 C160 160 124 196 80 216 C36 196 0 160 0 104 L0 28 Z" fill="#ffffff"/>
<path d="M47 100 L72 128 L122 66" fill="none" stroke="#1A54C2" stroke-width="20" stroke-linecap="round" stroke-linejoin="round"/>
</g>
</svg>
